<svg width="135" height="30" viewBox="0 0 135 30" fill="none" xmlns="http://www.w3.org/2000/svg">
<path d="M42.3383 4.77301C42.0929 3.87158 41.6142 3.04978 40.9498 2.38945C40.2855 1.72912 39.4587 1.2533 38.5517 1.00938C35.2316 0.109375 21.8688 0.109375 21.8688 0.109375C21.8688 0.109375 8.50601 0.136648 5.18589 1.03665C4.27897 1.28057 3.45215 1.75639 2.7878 2.41672C2.12344 3.07705 1.64472 3.89885 1.39931 4.80028C0.395039 10.6639 0.00540453 19.5985 1.42675 25.2276C1.67216 26.129 2.15088 26.9508 2.81524 27.6111C3.47959 28.2715 4.30641 28.7473 5.21333 28.9912C8.53345 29.8912 21.8963 29.8912 21.8963 29.8912C21.8963 29.8912 35.2591 29.8912 38.5792 28.9912C39.4861 28.7473 40.3129 28.2715 40.9773 27.6111C41.6416 26.9508 42.1204 26.129 42.3658 25.2276C43.4249 19.3557 43.7514 10.4266 42.3383 4.77301Z" fill="#FF0000"/>
<path d="M17.6157 21.3818L28.7011 15L17.6157 8.61816V21.3818Z" fill="white"/>
<path d="M62.5335 27.1909C61.6829 26.6181 61.0792 25.7454 60.7225 24.5454C60.3658 23.3454 60.2012 21.7636 60.2012 19.7727V17.0727C60.2012 15.0818 60.3933 13.4454 60.8049 12.2454C61.2164 11.0181 61.8475 10.1454 62.7256 9.59997C63.6036 9.05451 64.7286 8.75451 66.128 8.75451C67.5 8.75451 68.625 9.02724 69.4481 9.59997C70.2713 10.1727 70.9024 11.0454 71.2866 12.2454C71.6707 13.4454 71.8628 15.0545 71.8628 17.0454V19.7454C71.8628 21.7363 71.6707 23.3181 71.2866 24.5182C70.9024 25.7182 70.2988 26.5909 69.4481 27.1636C68.5975 27.7091 67.4451 28.0091 66.0183 28.0091C64.5366 28.0363 63.3841 27.7363 62.5335 27.1909ZM67.2805 24.2727C67.5274 23.6727 67.6372 22.6636 67.6372 21.3V15.4909C67.6372 14.1545 67.5274 13.1727 67.2805 12.5727C67.0335 11.9454 66.6219 11.6454 66.0457 11.6454C65.4695 11.6454 65.0853 11.9454 64.8384 12.5727C64.5914 13.2 64.4817 14.1545 64.4817 15.4909V21.3C64.4817 22.6636 64.5914 23.6727 64.8109 24.2727C65.0305 24.8727 65.442 25.1727 66.0457 25.1727C66.6219 25.1727 67.0335 24.8727 67.2805 24.2727ZM127.427 19.8272V20.7818L127.537 23.4818C127.619 24.0818 127.756 24.5182 127.976 24.7909C128.195 25.0636 128.552 25.2 129.018 25.2C129.649 25.2 130.088 24.9545 130.308 24.4636C130.555 23.9727 130.665 23.1545 130.692 22.0363L134.341 22.2545C134.369 22.4181 134.369 22.6363 134.369 22.9091C134.369 24.6272 133.902 25.9091 132.942 26.7545C131.982 27.6 130.665 28.0363 128.936 28.0363C126.851 28.0363 125.396 27.3818 124.573 26.1C123.75 24.8181 123.311 22.8 123.311 20.1V16.8C123.404 12.1636 124.225 8.76815 129.046 8.75451C130.5 8.75451 131.598 9.02724 132.366 9.54542C133.134 10.0636 133.683 10.8818 134.012 12C134.341 13.1181 134.479 14.6454 134.479 16.6091V19.8H127.427V19.8272ZM127.976 11.9727C127.756 12.2454 127.619 12.6545 127.537 13.2545C127.454 13.8545 127.427 15.9818 127.427 15.9818V17.3181H130.5V15.9818C130.5 17.3181 130.473 13.8818 130.39 13.2545C130.308 12.6272 130.171 12.1909 129.951 11.9454C129.732 11.7 129.402 11.5636 128.963 11.5636C128.497 11.5909 128.168 11.7272 127.976 11.9727ZM52.2713 19.4727L47.4695 2.23633H51.6677C51.6677 2.23633 53.6295 10.8818 54.3018 14.9454H54.4116C55.1744 10.6309 57.1006 2.23633 57.1006 2.23633H61.2988L56.442 19.4454V27.7091H52.2988V19.4727H52.2713Z" fill="#222222"/>
<path d="M85.4725 9.10938V27.7367H82.1798L81.8231 25.4457H81.7408C80.8353 27.1639 79.4908 28.0367 77.7073 28.0367C74.4777 28.0285 74.1183 25.3094 74.0853 23.0185V9.10938H78.3109V22.773C78.3109 23.5912 78.3932 24.1912 78.5853 24.5457C78.975 25.3039 79.9847 25.1103 80.5335 24.7367C80.8503 24.5238 81.1057 24.2323 81.2743 23.8912V9.10938H85.4725Z" fill="#222222"/>
<path d="M108.011 9.10938V27.7367H104.719L104.362 25.4457H104.28C103.374 27.1639 102.03 28.0367 100.246 28.0367C97.0166 28.0285 96.6572 25.3094 96.6243 23.0185V9.10938H100.85V22.773C100.85 23.5912 100.932 24.1912 101.124 24.5457C101.514 25.3039 102.524 25.1103 103.072 24.7367C103.389 24.5238 103.645 24.2323 103.813 23.8912V9.10938H108.011Z" fill="#222222"/>
<path d="M96.942 5.61761H92.7438V27.7358H88.628V5.61761H84.4298V2.2358H96.9146V5.61761H96.942ZM121.061 12.0812C120.814 10.9085 120.402 10.0631 119.826 9.51761C119.25 8.99943 118.482 8.7267 117.466 8.7267C116.694 8.72502 115.939 8.95297 115.299 9.38125C114.613 9.81761 114.119 10.3903 113.735 11.0994H113.707V1.28125H109.646V27.7085H113.131L113.57 25.9358H113.652C113.988 26.5601 114.491 27.0794 115.107 27.4358C115.765 27.7903 116.479 27.9813 117.274 27.9813C118.701 27.9813 119.744 27.3267 120.43 26.0176C121.088 24.7085 121.445 22.6631 121.445 19.9085V16.9631C121.445 14.8903 121.308 13.254 121.061 12.0812ZM117.192 19.6903C117.192 21.054 117.137 22.1176 117.027 22.8813C116.918 23.6449 116.726 24.1903 116.451 24.5176C116.177 24.8449 115.82 25.0085 115.381 25.0085C114.53 24.9812 114.048 24.5994 113.707 24.0267V13.4449C113.844 12.9267 114.091 12.5176 114.448 12.1903C115.052 11.5167 116.083 11.5085 116.561 12.1903C116.808 12.5176 116.945 13.0903 117.055 13.8813C117.137 14.6722 117.192 15.7903 117.192 17.2631V19.6903Z" fill="#222222"/>
</svg>
